<?xml version="1.0" standalone="no"?>
<!DOCTYPE svg PUBLIC "-//W3C//DTD SVG 20010904//EN"
 "http://www.w3.org/TR/2001/REC-SVG-20010904/DTD/svg10.dtd">
<svg version="1.0" xmlns="http://www.w3.org/2000/svg"
 width="1200.000000pt" height="628.000000pt" viewBox="0 0 1200.000000 628.000000"
 preserveAspectRatio="xMidYMid meet">

<g transform="translate(0.000000,628.000000) scale(0.100000,-0.100000)"
fill="#000000" stroke="none">
<path d="M3673 3783 c-33 -73 -216 -497 -295 -683 -90 -212 -146 -341 -198
-460 -23 -52 -50 -116 -61 -142 l-19 -48 95 0 c89 0 96 1 105 23 5 12 30 72
55 132 26 61 54 125 62 143 l15 32 311 -2 311 -3 36 -86 c73 -177 120 -238
202 -260 64 -17 159 4 173 39 6 17 -31 123 -47 133 -6 4 -21 3 -33 -3 -30 -14
-58 2 -78 44 -22 47 -199 461 -420 983 l-85 200 -54 3 -54 3 -21 -48z m159
-478 c114 -273 148 -359 144 -362 -5 -5 -468 -4 -473 1 -2 2 176 428 228 546
13 29 8 38 101 -185z"/>
<path d="M4601 3789 c-48 -19 -49 -24 -31 -92 l17 -62 44 3 c77 5 74 34 77
-610 l3 -568 89 0 90 0 0 398 c0 218 5 424 10 457 28 174 146 287 326 315 213
33 376 -71 430 -273 11 -40 14 -148 14 -474 l0 -423 90 0 c65 0 90 3 91 13 0
6 0 211 -1 454 -1 487 -3 504 -63 617 -88 165 -254 256 -467 256 -156 0 -287
-48 -385 -141 l-52 -49 -7 38 c-14 91 -94 153 -196 151 -30 0 -66 -5 -79 -10z"/>
<path d="M8095 3785 c-81 -17 -153 -46 -217 -85 -69 -43 -148 -110 -148 -126
0 -16 103 -104 122 -104 8 0 25 12 39 26 36 38 125 89 201 114 59 20 82 22
180 18 137 -6 206 -30 279 -96 73 -65 92 -108 97 -219 l4 -92 -76 25 c-115 36
-206 47 -351 41 -197 -8 -324 -51 -423 -145 -69 -64 -103 -140 -109 -245 -12
-194 79 -340 259 -415 215 -89 484 -50 656 95 35 30 53 40 56 31 3 -7 9 -29
16 -49 32 -107 174 -159 282 -103 33 17 33 13 9 89 -19 60 -23 63 -68 50 -14
-5 -28 0 -41 13 -19 19 -20 37 -24 409 -4 364 -6 392 -26 454 -70 212 -272
331 -560 328 -54 0 -124 -7 -157 -14z m444 -685 c120 -34 114 -27 109 -138 -5
-117 -29 -172 -105 -243 -148 -138 -432 -157 -577 -37 -78 64 -107 185 -66
275 34 76 103 127 213 158 79 22 328 14 426 -15z"/>
<path d="M6202 3303 c5 -502 5 -508 60 -618 78 -155 246 -249 448 -249 159 -1
284 43 384 135 31 28 56 45 56 38 0 -38 24 -90 56 -122 48 -48 119 -65 192
-47 73 17 78 27 57 105 -10 36 -19 65 -21 65 -1 0 -15 -5 -30 -10 -37 -15 -61
-4 -73 32 -7 21 -11 213 -11 584 l0 554 -90 0 -90 0 0 -392 c0 -225 -5 -421
-11 -458 -33 -208 -190 -330 -408 -317 -147 8 -244 69 -300 187 l-26 55 -3
463 -3 462 -95 0 -96 0 4 -467z"/>
</g>
</svg>
