<?xml version="1.0" standalone="no"?>
<!DOCTYPE svg PUBLIC "-//W3C//DTD SVG 20010904//EN"
 "http://www.w3.org/TR/2001/REC-SVG-20010904/DTD/svg10.dtd">
<svg version="1.0" xmlns="http://www.w3.org/2000/svg"
 viewBox="133.774 15.130 436.957 311.500"
 preserveAspectRatio="xMidYMid meet">

<g transform="translate(0.000000,356.000000) scale(0.100000,-0.100000)"
fill="#000000" stroke="none">
<path d="M2899 3228 c-18 -20 -20 -31 -15 -88 4 -49 11 -70 29 -88 23 -23 26
-23 55 -8 17 9 36 16 42 16 7 0 27 7 46 16 38 18 106 13 138 -11 18 -13 18
-16 2 -39 -21 -33 -56 -56 -183 -121 -29 -14 -53 -30 -53 -35 0 -4 -12 -13
-27 -19 -61 -25 -129 -75 -239 -173 -65 -59 -95 -148 -49 -148 9 0 15 9 15 21
0 11 8 35 18 51 18 33 79 98 91 98 4 0 18 11 31 25 13 14 27 25 32 25 5 0 37
19 71 43 71 49 170 99 201 102 52 4 85 20 123 58 45 47 58 83 43 121 -11 29
-105 96 -136 96 -31 0 -162 47 -180 64 -21 21 -29 20 -55 -6z"/>
<path d="M3735 3185 c-19 -20 -35 -40 -35 -45 0 -5 -9 -15 -19 -22 -10 -8 -29
-31 -42 -53 -13 -22 -29 -46 -36 -53 -7 -7 -13 -19 -13 -25 0 -7 7 -3 15 7 24
32 25 13 2 -33 -12 -23 -23 -38 -25 -32 -4 13 -32 -12 -32 -28 0 -6 -6 -11
-14 -11 -19 0 -56 -65 -56 -98 0 -30 47 -82 74 -82 19 0 76 75 76 100 0 9 11
30 25 45 l24 29 9 -25 c23 -58 152 -125 152 -77 0 5 -11 24 -25 42 -14 18 -25
37 -25 43 0 5 -16 30 -35 55 l-35 45 35 63 c19 34 35 64 35 67 0 3 11 16 25
29 31 29 32 58 3 78 -32 23 -43 20 -83 -19z"/>
<path d="M4052 3161 c-6 -4 -26 -36 -44 -71 -31 -61 -36 -66 -89 -85 -106 -38
-134 -76 -68 -90 23 -5 41 0 82 26 29 18 62 42 74 52 29 26 35 20 23 -24 -5
-19 -11 -77 -14 -129 -4 -112 -15 -145 -56 -168 -41 -24 -38 -32 14 -32 49 0
58 8 63 55 1 16 5 44 8 60 8 48 83 246 100 265 13 14 12 20 -5 50 -10 19 -23
45 -29 57 -12 26 -43 44 -59 34z"/>
<path d="M3576 2961 c-17 -6 -17 -8 -4 -14 10 -3 19 0 22 9 3 8 4 14 3 13 -1
0 -11 -4 -21 -8z"/>
<path d="M3104 2855 c-6 -15 26 -98 34 -90 3 3 29 -18 59 -46 29 -27 58 -47
63 -44 6 3 10 -1 10 -9 0 -11 9 -16 30 -16 23 0 30 4 30 20 0 34 -120 161
-177 186 -40 17 -42 17 -49 -1z"/>
<path d="M2997 2744 c-10 -13 -18 -34 -19 -47 0 -32 -19 -110 -31 -124 -10
-14 -85 -15 -93 -1 -3 4 -14 3 -25 -2 -10 -6 -19 -9 -19 -6 0 3 -14 0 -31 -6
-27 -9 -30 -14 -27 -47 2 -26 9 -39 26 -46 12 -5 25 -17 27 -27 8 -25 93 -33
152 -15 26 8 68 21 93 28 25 7 49 19 53 26 4 7 22 13 40 13 18 0 50 7 72 15
44 15 168 19 200 5 14 -6 16 -9 5 -11 -8 -1 12 -6 45 -11 101 -15 160 -10 160
13 0 15 -23 23 -172 59 -125 30 -221 22 -430 -37 -66 -19 -84 -14 -53 15 13
12 31 20 40 17 22 -7 70 48 77 90 8 51 -22 125 -50 125 -12 0 -30 -12 -40 -26z
m463 -204 c8 -5 11 -10 5 -10 -5 0 -17 5 -25 10 -8 5 -10 10 -5 10 6 0 17 -5
25 -10z"/>
<path d="M3625 2700 c-3 -11 -3 -25 0 -31 4 -6 14 -43 22 -82 16 -77 56 -157
79 -157 8 0 14 -4 14 -9 0 -5 15 -16 33 -24 33 -16 77 -13 77 5 0 5 5 6 10 3
6 -3 10 1 10 9 0 9 -5 16 -12 16 -18 0 31 48 78 75 49 29 122 42 150 27 14 -7
24 -7 36 2 16 12 16 15 -7 36 -21 20 -35 23 -90 22 -74 -1 -135 -29 -191 -89
-17 -18 -38 -33 -47 -33 -29 0 -37 91 -12 128 14 19 14 24 -1 47 -16 25 -74
63 -74 49 0 -3 -11 1 -25 10 -32 21 -42 20 -50 -4z"/>
<path d="M4151 2479 c-20 -8 -22 -14 -17 -42 5 -29 -19 -148 -67 -327 -45
-170 -67 -330 -69 -510 -2 -135 -1 -150 24 -220 15 -41 29 -87 32 -101 6 -37
34 -89 52 -96 7 -3 21 -2 30 1 14 5 14 8 -4 24 -12 10 -26 44 -35 87 -16 69
-41 230 -40 250 1 6 8 64 17 130 22 160 40 246 71 330 14 39 27 78 30 87 2 10
10 32 18 50 24 58 48 170 54 254 5 79 5 81 -18 87 -31 9 -49 8 -78 -4z"/>
<path d="M3352 2308 c-6 -35 -10 -70 -10 -78 0 -13 -8 -290 -16 -517 -1 -46 2
-63 11 -63 16 0 19 7 67 159 47 147 51 171 50 322 -1 133 -20 222 -50 233 -35
13 -42 6 -52 -56z"/>
<path d="M2780 2260 c0 -11 5 -20 10 -20 6 0 10 -6 10 -13 0 -12 22 -42 78
-104 12 -14 22 -31 22 -37 0 -6 14 -29 30 -50 17 -22 30 -47 30 -56 0 -10 10
-32 23 -51 12 -19 29 -50 36 -69 15 -37 37 -60 58 -60 11 0 11 6 0 33 -7 17
-14 50 -15 72 -2 22 -10 76 -18 120 -13 73 -13 82 3 112 9 17 24 34 32 37 9 3
31 17 50 31 64 47 72 32 46 -90 -8 -38 -26 -103 -40 -143 -29 -83 -24 -102 25
-102 21 0 39 12 67 44 36 41 83 142 83 178 0 33 -19 27 -30 -9 -14 -44 -68
-129 -99 -157 l-21 -19 0 48 c0 28 12 82 29 129 16 45 32 102 36 129 6 44 4
48 -19 57 -14 5 -37 5 -53 1 -47 -14 -127 -59 -145 -83 -9 -13 -18 -21 -20
-18 -2 3 -16 24 -31 48 -32 49 -58 62 -128 62 -42 0 -49 -3 -49 -20z"/>
<path d="M3670 2240 c0 -11 -4 -20 -10 -20 -5 0 -10 -6 -10 -14 0 -7 -10 -24
-22 -38 -53 -59 -92 -136 -103 -206 -3 -19 -8 -38 -10 -42 -3 -5 -1 -11 5 -15
5 -3 10 -22 10 -40 0 -38 13 -49 72 -58 29 -4 45 0 72 18 18 13 45 26 57 30
39 13 182 95 204 117 14 14 2 10 -45 -15 -101 -53 -225 -84 -258 -63 -28 17
-3 105 38 133 11 8 20 21 20 29 0 8 6 14 13 14 20 1 89 67 77 75 -5 3 -8 11
-4 16 7 11 -78 99 -95 99 -6 0 -11 -9 -11 -20z"/>
<path d="M3961 2235 c-18 -8 -53 -15 -77 -15 -48 0 -64 -14 -41 -38 24 -23
134 -22 170 2 15 10 27 14 28 10 0 -5 4 2 10 14 5 13 7 28 3 33 -8 13 -54 10
-93 -6z"/>
<path d="M4010 2134 c-25 -19 -49 -38 -55 -42 -5 -4 -18 -11 -27 -15 -21 -8
-23 -30 -4 -46 11 -9 26 2 75 54 33 36 61 70 61 75 0 13 2 14 -50 -26z"/>
<path d="M4253 1618 c-29 -35 -72 -131 -73 -165 -3 -64 -1 -73 18 -73 10 0 37
-9 60 -20 22 -11 54 -20 70 -20 35 0 72 33 72 65 0 14 10 44 21 68 31 64 22
90 -44 122 -71 33 -110 40 -124 23z m55 -26 c16 -11 12 -62 -5 -62 -7 0 -13 7
-13 15 0 8 -4 15 -10 15 -5 0 -10 4 -10 10 0 5 8 7 18 3 14 -5 13 -3 -3 10
-15 12 -16 16 -5 17 8 0 21 -4 28 -8z m92 -57 c0 -14 -5 -25 -12 -25 -6 0 -8
-3 -5 -7 4 -3 2 -12 -4 -20 -9 -9 -8 -13 0 -13 6 0 11 -4 11 -10 0 -13 -21
-13 -40 0 -10 7 -11 12 -4 18 6 4 13 15 17 25 5 12 1 17 -13 17 -11 0 -20 5
-20 11 0 6 9 9 20 6 11 -3 23 0 27 5 4 7 1 8 -7 3 -9 -5 -11 -4 -6 3 13 22 36
13 36 -13z m-166 -41 c8 -3 12 -12 9 -20 -3 -8 0 -14 6 -14 6 0 11 7 11 15 0
8 5 15 11 15 6 0 9 -6 6 -14 -8 -20 16 -39 30 -25 7 7 12 5 17 -6 7 -20 -23
-33 -34 -15 -5 8 -24 13 -44 12 -34 -1 -36 0 -34 28 1 17 3 30 4 30 1 0 9 -3
18 -6z m126 -58 c0 -8 -7 -22 -16 -30 -11 -11 -12 -16 -3 -16 9 0 10 -3 3 -10
-6 -6 -19 -8 -28 -4 -17 6 -17 8 -2 16 10 5 21 21 26 34 11 27 20 32 20 10z
m-100 -21 c0 -14 -4 -25 -10 -25 -11 0 -14 33 -3 43 11 11 13 8 13 -18z"/>
<path d="M340 847 l25 -13 3 -171 2 -172 -27 -15 c-26 -14 -21 -15 84 -16 115
0 147 6 182 37 47 40 31 131 -30 167 l-31 18 26 27 c36 38 34 75 -8 117 l-34
34 -109 0 c-94 0 -105 -2 -83 -13z m183 -39 c20 -24 22 -67 4 -92 -7 -10 -28
-21 -47 -25 -46 -9 -52 -31 -8 -31 55 0 75 -10 94 -45 14 -26 15 -40 8 -66
-12 -41 -43 -59 -106 -59 l-48 0 0 176 0 176 43 -7 c23 -4 50 -16 60 -27z"/>
<path d="M716 851 c-3 -5 5 -12 19 -15 l25 -6 0 -175 c0 -168 -1 -175 -20
-175 -11 0 -20 -4 -20 -10 0 -6 51 -10 133 -10 l133 0 17 38 c25 58 21 71 -12
32 -27 -33 -32 -35 -105 -38 l-76 -4 0 76 0 76 61 0 c52 0 62 -3 66 -20 9 -33
23 -11 23 36 0 43 -12 59 -24 29 -4 -11 -21 -15 -66 -15 l-60 0 0 75 0 75 75
0 c69 0 76 -2 85 -22 8 -22 9 -22 9 4 1 14 4 33 7 42 5 14 -10 16 -129 16 -75
0 -138 -4 -141 -9z"/>
<path d="M1290 795 c-122 -271 -139 -305 -165 -315 -40 -15 -30 -20 42 -20 63
0 65 1 50 18 -10 10 -14 22 -10 26 5 4 13 24 18 44 l11 37 80 3 80 3 22 -46
c26 -53 27 -65 8 -65 -8 0 -18 -4 -21 -10 -4 -6 20 -10 64 -10 67 0 94 12 53
22 -11 3 -32 33 -49 69 -72 149 -93 197 -93 208 0 6 -13 32 -30 58 l-29 48
-31 -70z m37 -173 c-33 -2 -61 -1 -63 0 -4 5 23 83 42 120 l16 31 32 -74 31
-74 -58 -3z"/>
<path d="M1650 840 c18 -18 20 -33 20 -150 0 -149 8 -175 65 -209 52 -30 150
-29 195 2 60 40 68 66 69 220 1 133 2 138 24 147 16 6 6 9 -43 9 -49 0 -59 -3
-42 -9 21 -9 22 -14 22 -148 0 -137 0 -138 -28 -172 -26 -30 -35 -34 -90 -38
-56 -4 -63 -2 -86 23 -36 39 -46 84 -46 207 0 99 2 108 22 122 21 15 19 16
-40 16 l-62 0 20 -20z"/>
<path d="M2120 819 c0 -24 4 -38 10 -34 6 3 10 13 10 21 0 11 16 14 70 14 l70
0 0 -159 0 -159 -27 -21 -28 -20 73 -1 c46 0 71 4 67 10 -3 6 -13 10 -21 10
-12 0 -14 29 -14 170 l0 170 63 0 c56 0 65 -3 75 -22 9 -21 11 -18 11 20 l1
42 -180 0 -180 0 0 -41z"/>
<path d="M2587 845 c26 -11 83 -80 83 -99 0 -3 14 -28 30 -56 26 -45 30 -60
30 -129 0 -71 -2 -79 -22 -89 -19 -9 -11 -11 47 -11 66 -1 68 0 47 15 -19 13
-22 24 -22 87 1 77 3 83 78 205 28 46 53 74 70 81 22 8 14 9 -43 9 -38 0 -62
-2 -52 -5 24 -6 21 -26 -8 -73 -14 -22 -25 -43 -25 -47 -1 -10 -40 -57 -43
-52 -9 14 -49 90 -62 117 -12 26 -13 37 -4 48 10 12 0 14 -62 14 -72 -1 -73
-1 -42 -15z"/>
<path d="M3353 843 c-18 -9 -33 -20 -33 -25 0 -4 -5 -8 -11 -8 -17 0 -34 -22
-52 -68 -57 -144 38 -282 195 -282 134 0 221 79 221 200 0 57 -27 123 -59 143
-7 4 -20 14 -28 22 -8 8 -26 19 -41 25 -41 15 -155 11 -192 -7z m179 -29 c77
-36 109 -151 66 -233 -35 -68 -67 -86 -146 -86 -59 0 -71 3 -98 28 -20 18 -38
49 -49 84 -17 54 -17 59 0 110 19 56 40 80 83 100 39 17 106 16 144 -3z"/>
<path d="M3757 853 c-4 -3 3 -11 16 -17 21 -11 22 -17 25 -178 l2 -167 -27
-15 c-27 -15 -25 -15 47 -15 71 0 74 1 53 16 -20 14 -23 24 -23 89 l0 74 61 0
c52 0 62 -3 66 -20 9 -33 23 -11 23 36 0 43 -12 59 -24 29 -4 -11 -21 -15 -66
-15 l-60 0 0 75 0 75 74 0 c65 0 74 -2 79 -20 9 -35 27 -22 27 20 l0 40 -133
0 c-74 0 -137 -3 -140 -7z"/>
<path d="M4350 851 l25 -7 0 -169 c0 -114 -4 -170 -11 -172 -22 -7 -49 -32
-42 -38 12 -12 53 3 81 29 l27 25 0 159 0 158 28 11 c23 9 15 11 -53 11 -47 0
-70 -3 -55 -7z"/>
<path d="M4657 831 c-61 -40 -87 -90 -87 -173 0 -124 79 -198 210 -198 56 0
73 5 111 29 83 53 116 111 105 186 -6 45 -28 99 -50 120 -6 6 -29 23 -51 38
-34 23 -50 27 -115 27 -67 0 -82 -4 -123 -29z m193 -15 c50 -21 90 -88 90
-152 0 -59 -29 -125 -67 -149 -63 -42 -170 -26 -217 32 -27 32 -30 41 -30 113
0 71 3 81 29 111 15 19 40 39 54 46 36 16 102 16 141 -1z"/>
<path d="M5123 845 c-25 -17 -39 -71 -29 -110 4 -16 37 -49 86 -88 75 -58 80
-64 80 -100 0 -32 -4 -39 -27 -48 -37 -14 -104 -5 -120 17 -7 10 -13 28 -13
42 0 13 -4 20 -10 17 -5 -3 -10 -24 -10 -45 0 -52 26 -70 103 -70 54 0 62 3
94 35 32 32 35 39 30 78 -6 45 -9 48 -115 129 -46 36 -62 54 -62 72 0 34 25
56 65 56 46 0 65 -9 65 -31 0 -10 5 -19 10 -19 6 0 10 18 10 40 l0 40 -68 0
c-44 0 -75 -5 -89 -15z"/>
<path d="M5493 853 c-57 -2 -103 -8 -103 -13 0 -6 9 -10 20 -10 19 0 20 -7 20
-171 0 -162 -1 -171 -20 -176 -52 -14 -8 -23 110 -23 143 0 140 -1 155 70 l8
35 -28 -33 c-26 -31 -30 -32 -101 -32 l-74 0 0 70 0 70 60 0 c54 0 62 -3 70
-22 7 -18 9 -11 9 32 0 42 -2 51 -10 38 -8 -14 -23 -18 -69 -18 l-60 0 0 75 0
75 71 0 c62 0 71 -2 76 -20 9 -34 23 -22 23 20 0 37 -2 40 -27 38 -16 -1 -74
-4 -130 -5z"/>
<path d="M5855 827 c-66 -45 -80 -73 -80 -166 0 -90 19 -125 93 -172 85 -54
213 -35 282 41 42 46 50 67 50 132 0 71 -24 116 -89 165 -32 25 -45 28 -121
31 -82 2 -87 1 -135 -31z m223 -24 c89 -66 88 -220 -2 -287 -22 -17 -42 -21
-97 -21 -70 0 -71 0 -110 42 -39 42 -39 43 -39 121 0 88 14 116 74 154 41 25
134 21 174 -9z"/>
<path d="M6318 675 c3 -181 2 -185 -18 -185 -11 0 -20 -7 -20 -15 0 -12 13
-15 59 -15 65 0 87 14 47 30 l-26 10 0 132 0 132 48 -45 c188 -180 274 -259
283 -259 2 0 3 81 1 180 -3 172 -2 180 17 192 34 21 24 28 -39 28 -59 0 -79
-13 -40 -25 19 -6 20 -15 20 -137 l0 -131 -27 24 c-15 13 -59 54 -98 90 -38
36 -97 91 -131 122 -33 31 -65 57 -70 57 -5 0 -8 -78 -6 -185z"/>
</g>
</svg>
