<?xml version="1.0" encoding="UTF-8"?>
<svg id="Layer_1" xmlns="http://www.w3.org/2000/svg" version="1.1" viewBox="0 0 666 136.2">
  <!-- Generator: Adobe Illustrator 29.5.0, SVG Export Plug-In . SVG Version: 2.1.0 Build 137)  -->
  <defs>
    <style>
      .st0 {
        fill: #231f20;
      }
    </style>
  </defs>
  <path class="st0" d="M27.7,13.2C38.9,4.9,52.7.2,66.7,0c17.3-.3,34.8,6.3,47.3,18.3-3.3,2.6-6.8,5.1-10.1,7.7-3.8,2.9-7.6,5.8-11.5,8.6-6.7-4.9-14.8-7.8-23.1-8-8.9-.4-17.8,2.3-25.1,7.4-6.4,4.5-11.5,10.8-14.5,18.1-3,7.2-3.9,15.3-2.5,23,1.4,7.9,5.2,15.3,10.7,21.1,5.7,6,13.1,10.2,21.2,12,8.8,2,18.2.9,26.4-3,3.4-1.6,6.6-3.8,9.5-6.2,3.4,2.7,6.8,5.4,10.2,8.1,3.5,2.9,7.1,5.7,10.6,8.6-9.4,9.6-21.8,16.2-35,18.7-10.9,2.1-22.4,1.5-33-1.8-9.1-2.8-17.6-7.7-24.8-14C11,108.1,3,93.5.7,77.8c-.4-2.3-.5-4.5-.7-6.8v-5.8c.3-5.6,1.1-11.2,2.8-16.6,4.2-14.1,13.1-26.7,24.9-35.4Z"/>
  <path class="st0" d="M196.9.3c10.8-.9,21.9.7,31.9,5,13.8,5.8,25.4,16.6,32.4,29.9,8.7,16.3,10.6,36.2,5,53.9-4.5,14.4-14,27.2-26.6,35.5-14.3,9.6-32.4,13.2-49.2,9.9-15.9-3-30.4-12.2-40.2-25-5.9-7.5-10.1-16.3-12.3-25.6-4.4-18.1-.8-37.9,9.5-53.4,9.1-13.9,23.3-24.4,39.5-28.5,3.3-.9,6.7-1.4,10.1-1.7h0ZM199.9,24.7c-10,.6-19.7,5.3-26.6,12.6-5.8,6-9.8,13.8-11.4,22-2,9.7-.8,20.1,3.8,28.9,4,7.9,10.5,14.5,18.4,18.5,8.3,4.3,18.1,5.5,27.3,3.6,8.6-1.7,16.6-6.2,22.6-12.6,5.2-5.5,8.8-12.5,10.4-19.9,2.2-9.9.8-20.6-3.7-29.7-3.5-7-9-13.1-15.7-17.2-7.4-4.6-16.3-6.8-25-6.2h0Z"/>
  <path class="st0" d="M339.3.3c9.4-.9,19.1,0,27.9,3.7,7.5,3.1,14.2,8.1,19.4,14.5-6.5,5-12.9,10-19.4,14.9-2.6-2.6-5.6-4.9-9-6.5-5.6-2.6-11.9-3.5-18-2.9-4.3.5-8.8,2-11.8,5.3-2.7,2.9-4.1,7.3-2.7,11.1,1.5,3.5,4.8,5.8,8,7.7,4.2,2.3,8.7,3.8,13.1,5.6,4.8,1.9,9.6,3.8,14.4,5.9,4.9,2.1,9.9,4.1,14.5,7.1,6.3,4,11.9,9.6,14.7,16.6,2.3,5.6,2.6,11.8,1.8,17.7-1.1,7.6-4.4,14.8-9.5,20.4-5.4,6-12.6,10.3-20.3,12.5-9.8,2.9-20.2,3-30.1.6-8.7-2.1-16.9-6.2-24-11.6-3.6-2.8-7-5.9-9.7-9.5-.9-1.2-1.7-2.3-2.3-3.7,6.3-4.4,12.5-8.9,18.8-13.3,2.6,3,5.4,5.9,8.5,8.4,3.9,3.1,8.2,5.6,13,7,4.2,1.2,8.7,1.4,13.1,1.1,4.4-.4,8.8-1.7,12.4-4.4,2.4-1.9,4.3-4.5,5.1-7.5.9-3.9.1-8.3-2.4-11.5-2.2-2.9-5.5-4.8-8.8-6.3-5.6-2.5-11.5-4.2-17.2-6.1-8.3-2.9-16.7-6.1-24.1-11.1-6.7-4.4-11.7-11.3-13.8-19-1.5-5.3-1.1-11,.2-16.3,2.2-8.6,7.7-16.3,14.9-21.5,6.8-5,15-7.8,23.4-8.7h0Z"/>
  <path class="st0" d="M429.9,2.7c14.3,0,28.5,0,42.8,0,5,0,10.2.2,15,1.6,7.5,2.1,14.3,6.6,19,12.8,5.2,6.9,7.8,15.5,8.3,24,.4,8.8-2.8,17.8-8.8,24.3-2.7,2.9-5.9,5.4-9.3,7.3-3.8,2.1-7.9,3.4-11.9,5.1,2.9,3.6,6,6.9,9,10.4,12,13.8,24.1,27.6,36.1,41.3,1,1.2,2.2,2.3,3,3.6-7.9.1-15.8,0-23.8,0-1.7,0-3.4.1-5.1,0-2.8-3-5.4-6.1-8.1-9.1-13.3-15.2-26.6-30.3-40-45.4-.8-.9-1.5-1.8-2.4-2.6,0,19.1,0,38.2,0,57.3-8,0-15.9,0-23.9,0,0-43.5,0-87.1,0-130.6h0ZM452.8,24v34.8h15.6c3.1,0,6.3.2,9.3-.6,3.7-.8,7.2-2.9,9.4-6,2.6-3.6,3.3-8.2,2.8-12.6-.5-4.6-2.7-9.2-6.4-12-3.2-2.5-7.3-3.7-11.3-3.6-6.5,0-13,0-19.4,0h0Z"/>
  <path class="st0" d="M548.6,3.8c10,0,20,0,30,0,9.3,15.1,18.6,30.2,27.9,45.2.2,0,.4,0,.5-.3,8-11.9,16-23.9,24-35.8,2.1-3.1,4.1-6.2,6.2-9.2,9,0,18,0,26.9,0-6.8,10.3-13.7,20.5-20.6,30.7-7.4,11-14.7,21.9-22.1,32.9,3.2,4.8,6.5,9.6,9.7,14.4,10.6,15.7,21.3,31.4,31.9,47.1,1,1.5,2.1,2.9,2.9,4.4-10,0-19.9,0-29.9,0-10.2-14.5-20.3-29.2-30.5-43.7-2.2,3.4-4.3,6.8-6.5,10.2-1.9,3.1-3.9,6-5.9,9-5.5,8.2-11,16.3-16.6,24.5-9,0-18,0-27,0,2-3.2,4.2-6.3,6.3-9.5,11.8-17.7,23.7-35.3,35.5-52.9.3-.6,1.2-1.3.6-2-8.3-12.5-16.7-25-25-37.6-6.1-9.2-12.3-18.3-18.3-27.6h0Z"/>
</svg>