<?xml version="1.0" standalone="no"?>
<!DOCTYPE svg PUBLIC "-//W3C//DTD SVG 20010904//EN"
 "http://www.w3.org/TR/2001/REC-SVG-20010904/DTD/svg10.dtd">
<svg version="1.0" xmlns="http://www.w3.org/2000/svg"
 width="800.000000pt" height="153.000000pt" viewBox="0 0 800.000000 153.000000"
 preserveAspectRatio="xMidYMid meet">

<g transform="translate(0.000000,153.000000) scale(0.100000,-0.100000)"
fill="#000000" stroke="none">
<path d="M1214 1116 c-151 -70 -174 -268 -43 -379 142 -122 360 -16 359 175 0
68 -26 123 -78 170 -69 62 -152 74 -238 34z m141 -100 c62 -26 85 -117 43
-171 -52 -66 -139 -64 -186 5 -29 43 -25 100 10 137 40 44 77 52 133 29z"/>
<path d="M220 761 l0 -361 90 0 89 0 3 87 3 88 54 0 55 0 51 -85 51 -85 112
-3 c62 -1 112 0 112 3 0 3 -31 52 -69 108 l-69 103 43 46 c121 128 86 351 -69
436 -26 14 -65 18 -243 20 l-213 3 0 -360z m381 160 c23 -23 29 -38 29 -71 0
-33 -6 -48 -29 -71 -28 -28 -34 -29 -115 -29 l-86 0 0 100 0 100 86 0 c81 0
87 -1 115 -29z"/>
<path d="M1850 933 c0 -225 9 -287 52 -373 60 -117 182 -180 323 -167 161 15
273 122 304 291 6 33 11 144 11 248 l0 188 -94 0 -95 0 -3 -222 c-3 -215 -4
-224 -27 -262 -48 -77 -154 -95 -223 -38 -55 46 -61 76 -66 310 l-4 212 -89 0
-89 0 0 -187z"/>
<path d="M2790 760 l0 -360 90 0 90 0 2 206 3 207 169 -207 168 -206 89 0 89
0 0 360 0 360 -90 0 -90 0 0 -200 c0 -110 -3 -200 -8 -200 -4 0 -81 90 -171
200 l-163 200 -89 0 -89 0 0 -360z"/>
<path d="M3772 763 l3 -358 167 -3 c250 -4 346 23 433 120 65 71 80 117 80
243 0 95 -3 116 -23 156 -37 75 -87 125 -160 161 l-66 33 -218 3 -218 4 2
-359z m391 173 c50 -18 76 -42 98 -91 44 -96 -1 -219 -94 -254 -16 -6 -69 -11
-118 -11 l-89 0 0 185 0 185 83 0 c45 -1 99 -7 120 -14z"/>
<path d="M5350 760 l0 -360 270 0 270 0 0 90 0 90 -180 0 -180 0 0 75 0 75
100 0 100 0 0 25 0 25 -100 0 -100 0 0 30 c0 30 1 30 55 30 52 0 55 1 55 25 0
24 -3 25 -55 25 l-55 0 0 35 0 35 55 0 c52 0 55 1 55 25 0 24 -3 25 -55 25
l-55 0 0 55 0 55 -90 0 -90 0 0 -360z"/>
<path d="M6406 1112 c-8 -13 -288 -675 -293 -694 -5 -16 4 -18 90 -18 l95 0
23 55 23 55 165 0 166 0 20 -52 21 -53 97 -3 c53 -1 97 0 97 2 0 3 -67 164
-149 358 l-150 353 -100 3 c-55 1 -102 -1 -105 -6z m152 -324 c23 -57 42 -106
42 -110 0 -5 -42 -8 -94 -8 l-94 0 46 110 c25 61 49 110 52 110 3 0 25 -46 48
-102z"/>
<path d="M7160 760 l0 -360 168 0 c281 1 371 23 422 104 46 76 35 190 -25 251
l-35 34 25 47 c59 111 9 234 -109 269 -36 11 -102 15 -248 15 l-198 0 0 -360z
m383 188 c9 -7 19 -25 22 -40 5 -21 1 -33 -19 -52 -23 -24 -32 -26 -116 -26
l-90 0 0 65 0 65 93 0 c59 0 99 -5 110 -12z m21 -277 c21 -17 21 -59 -1 -83
-14 -15 -32 -18 -120 -18 l-103 0 0 53 c0 30 3 57 8 61 12 13 198 2 216 -13z"/>
<path d="M1040 455 l0 -55 266 0 265 0 -3 53 -3 52 -262 3 -263 2 0 -55z"/>
</g>
</svg>
