<?xml version="1.0" standalone="no"?>
<!DOCTYPE svg PUBLIC "-//W3C//DTD SVG 20010904//EN"
 "http://www.w3.org/TR/2001/REC-SVG-20010904/DTD/svg10.dtd">
<svg version="1.0" xmlns="http://www.w3.org/2000/svg"
 viewBox="462.432 615.820 2126.678 270.360"
 preserveAspectRatio="xMidYMid meet">

<g transform="translate(0.000000,1502.000000) scale(0.100000,-0.100000)"
fill="#000000" stroke="none">
<path d="M955 8739 c-349 -44 -583 -224 -671 -515 -25 -82 -25 -276 0 -358 28
-95 71 -170 136 -239 133 -142 279 -207 700 -312 323 -80 412 -122 462 -219
33 -62 30 -166 -6 -240 -54 -109 -149 -164 -326 -187 -203 -26 -420 29 -600
151 -33 22 -105 79 -161 127 -55 47 -102 84 -103 82 -2 -2 -56 -64 -120 -138
-64 -74 -116 -140 -116 -146 0 -7 31 -44 68 -83 390 -399 1074 -510 1477 -240
214 142 326 363 312 612 -10 177 -66 298 -194 416 -120 111 -223 155 -588 255
-397 108 -476 144 -535 248 -24 42 -30 64 -30 112 0 136 107 234 305 281 120
28 212 6 578 -137 126 -49 232 -87 237 -84 4 3 54 61 109 129 l101 125 -72 62
c-88 76 -216 160 -300 198 -205 93 -439 128 -663 100z"/>
<path d="M29750 8730 c-119 -20 -163 -60 -384 -344 -165 -212 -455 -571 -792
-981 -100 -121 -188 -233 -196 -250 -27 -53 -29 -91 -7 -160 25 -81 75 -138
137 -155 30 -8 181 -11 506 -9 413 2 465 0 494 -15 64 -33 67 -47 67 -281 l0
-210 195 0 195 0 5 227 c6 287 -4 271 174 278 114 5 127 7 150 29 35 33 50 83
50 166 -1 88 -17 137 -55 170 -29 23 -37 25 -140 25 -61 0 -119 5 -129 10 -45
24 -45 19 -50 769 l-5 715 -25 6 c-47 13 -145 18 -190 10z m-196 -756 c14 -5
16 -45 16 -345 0 -355 -3 -385 -44 -395 -12 -2 -150 -3 -308 -2 l-287 3 300
373 c165 204 301 372 303 372 3 0 11 -3 20 -6z"/>
<path d="M4554 8712 c-79 -37 -74 38 -73 -1190 1 -598 4 -1112 7 -1142 l7 -55
195 0 195 0 5 508 5 508 365 -427 c406 -475 477 -552 535 -579 52 -25 187 -34
391 -27 l161 5 -536 614 c-295 338 -536 619 -536 624 0 5 216 264 480 575 264
312 480 570 480 573 0 12 -151 30 -256 30 -255 2 -387 -76 -555 -329 -139
-210 -485 -628 -520 -629 -22 -1 -22 1 -27 272 -3 149 -5 344 -4 433 3 229
-10 246 -178 251 -82 3 -107 0 -141 -15z"/>
<path d="M11682 8709 c-29 -5 -62 -14 -72 -19 -55 -29 -61 -166 -58 -1307 3
-988 3 -992 24 -1020 34 -46 69 -57 174 -56 118 0 164 17 185 67 12 29 15 162
17 809 2 427 6 779 10 783 4 4 17 -4 28 -17 64 -73 837 -1044 1009 -1267 112
-144 223 -280 248 -301 75 -66 178 -87 303 -60 l51 11 -3 1141 c-3 1119 -3
1143 -23 1182 -31 61 -73 72 -221 57 -97 -9 -121 -15 -140 -33 l-24 -22 0
-759 c0 -417 -2 -758 -5 -758 -18 0 -65 34 -101 72 -46 48 -649 807 -968 1218
-152 195 -189 235 -238 261 -45 23 -126 31 -196 18z"/>
<path d="M16080 8535 c0 -102 1 -185 3 -186 1 0 66 -4 144 -7 117 -6 146 -11
160 -25 17 -17 18 -77 21 -1007 l2 -990 190 0 190 0 0 1200 0 1200 -355 0
-355 0 0 -185z"/>
<path d="M8728 8694 c-18 -9 -31 -27 -37 -52 -14 -50 -16 -2218 -3 -2252 5
-14 21 -35 34 -48 53 -49 242 -54 310 -8 65 43 61 -27 59 1175 -1 603 -4 1117
-7 1142 l-6 46 -52 7 c-98 11 -269 6 -298 -10z"/>
<path d="M20215 8665 c-386 -71 -703 -323 -842 -670 -107 -266 -122 -569 -43
-855 45 -161 160 -360 279 -478 239 -239 608 -359 958 -311 259 35 463 132
640 302 226 218 337 478 350 817 22 621 -343 1094 -924 1195 -104 18 -321 18
-418 0z m320 -360 c148 -26 292 -118 389 -247 133 -179 185 -368 173 -630 -10
-220 -73 -374 -212 -514 -139 -141 -279 -206 -445 -208 -116 -1 -180 14 -287
66 -198 96 -347 304 -398 557 -24 116 -16 344 15 451 79 271 291 481 530 525
97 17 138 17 235 0z"/>
<path d="M24736 8664 c-333 -60 -603 -249 -776 -544 -113 -192 -173 -484 -150
-727 28 -299 138 -545 329 -733 173 -171 369 -267 623 -304 247 -37 473 -4
693 103 393 189 625 580 627 1056 1 337 -102 611 -312 829 -133 138 -266 223
-445 281 -166 54 -415 70 -589 39z m342 -359 c250 -59 474 -308 532 -595 78
-380 -93 -797 -385 -940 -85 -42 -166 -60 -267 -60 -113 0 -175 13 -273 59
-407 191 -552 783 -298 1221 57 97 171 207 270 258 44 23 107 48 140 56 77 19
203 19 281 1z"/>
</g>
</svg>
