<?xml version="1.0" standalone="no"?>
<!DOCTYPE svg PUBLIC "-//W3C//DTD SVG 20010904//EN"
 "http://www.w3.org/TR/2001/REC-SVG-20010904/DTD/svg10.dtd">
<svg version="1.0" xmlns="http://www.w3.org/2000/svg"
 viewBox="110.000 166.100 780.000 107.800"
 preserveAspectRatio="xMidYMid meet">

<g transform="translate(0.000000,440.000000) scale(0.100000,-0.100000)"
fill="#000000" stroke="none">
<path d="M4490 2664 c-129 -47 -222 -175 -250 -346 -41 -252 42 -481 205 -566
43 -23 63 -27 135 -27 73 0 93 4 142 28 100 49 171 151 204 294 22 95 15 283
-15 375 -31 96 -100 184 -173 222 -72 36 -178 45 -248 20z m172 -186 c29 -17
46 -38 71 -87 31 -63 32 -70 32 -191 -1 -109 -4 -132 -24 -178 -68 -152 -224
-163 -296 -22 -61 121 -55 313 13 421 49 77 128 99 204 57z"/>
<path d="M53 2654 c-2 -6 -3 -44 -1 -85 l3 -74 102 -3 103 -3 0 -374 0 -375
85 0 85 0 -2 375 -3 375 103 0 102 0 0 85 0 84 -286 3 c-201 2 -288 0 -291 -8z"/>
<path d="M680 2665 c0 0 -1 -208 -3 -463 l-2 -462 83 0 82 0 0 185 0 185 150
0 150 0 0 -185 0 -185 80 0 80 0 0 463 0 462 -77 -2 -78 -1 -5 -184 -5 -183
-147 -3 -148 -3 -2 187 -3 186 -78 1 c-42 1 -77 2 -77 2z"/>
<path d="M1691 2660 l-93 -5 -124 -435 c-68 -239 -127 -445 -130 -457 -6 -23
-5 -23 83 -23 l89 0 24 100 24 101 130 -3 130 -3 24 -97 24 -98 89 0 c49 0 89
2 89 4 0 15 -253 912 -259 916 -3 3 -48 3 -100 0z m50 -372 c21 -86 39 -164
39 -173 0 -12 -16 -15 -91 -15 -69 0 -90 3 -86 13 2 6 24 94 48 195 24 101 45
173 47 160 2 -13 21 -94 43 -180z"/>
<path d="M2090 2203 l0 -463 75 0 75 0 2 320 3 321 165 -321 164 -320 83 0 83
0 -2 461 -3 461 -73 1 -72 2 0 -320 -1 -320 -162 318 -162 319 -88 1 -87 2 0
-462z"/>
<path d="M2854 2661 c-2 -2 -4 -211 -4 -463 l0 -458 86 0 85 0 -3 219 c-2 121
-2 218 0 217 3 -4 132 -251 185 -353 l41 -83 103 0 c57 0 103 2 103 4 0 1 -61
110 -135 240 l-135 237 121 210 c66 116 122 216 125 222 3 9 -22 12 -92 11
l-97 -1 -106 -211 c-58 -115 -108 -211 -111 -211 -3 -1 -5 94 -5 210 l0 211
-78 1 c-43 1 -81 0 -83 -2z"/>
<path d="M3708 2660 l-86 -5 114 -298 114 -299 0 -159 0 -159 80 0 80 0 0 160
0 160 119 300 119 300 -79 0 c-44 0 -82 0 -86 1 -10 1 -132 -348 -132 -378 -1
-27 -21 -31 -21 -5 0 23 -117 374 -127 381 -5 3 -47 4 -95 1z"/>
<path d="M5440 2660 c0 -3 0 -120 0 -260 1 -363 -13 -444 -80 -484 -64 -37
-136 -12 -171 61 -23 47 -24 56 -27 366 l-3 317 -80 0 -80 0 3 -342 c3 -288 7
-351 21 -393 26 -81 70 -138 129 -171 48 -26 62 -29 143 -29 79 0 97 4 142 27
81 43 122 107 147 230 13 60 16 142 16 377 l0 299 -80 4 c-44 2 -80 1 -80 -2z"/>
<path d="M5915 2648 c-3 -7 -4 -215 -3 -463 l3 -450 43 -3 42 -3 0 205 0 206
130 0 130 0 0 50 0 50 -130 0 -130 0 0 160 0 160 140 0 140 0 0 50 0 50 -180
0 c-135 0 -182 -3 -185 -12z"/>
<path d="M6667 2653 c-4 -6 -127 -416 -273 -906 -5 -16 0 -18 42 -15 l49 3 35
128 35 127 154 -2 154 -3 13 -40 c7 -22 25 -79 39 -127 l26 -88 45 0 c24 0 44
3 44 8 0 4 -62 213 -137 465 l-138 457 -42 0 c-23 0 -44 -3 -46 -7z m53 -149
c0 -8 25 -101 55 -207 30 -105 55 -195 55 -199 0 -5 -54 -8 -120 -8 -76 0
-120 4 -120 10 0 6 25 97 55 203 30 105 55 200 55 210 0 10 5 15 10 12 6 -3
10 -13 10 -21z"/>
<path d="M7190 2195 l0 -465 45 0 45 0 0 201 0 202 56 -6 c82 -8 106 -36 200
-233 l77 -164 49 0 c26 0 48 2 48 5 0 22 -194 387 -214 402 l-25 20 52 34 c76
51 102 107 102 224 0 103 -21 156 -77 198 -53 39 -93 47 -229 47 l-129 0 0
-465z m279 347 c113 -61 86 -277 -38 -312 -20 -5 -62 -10 -93 -10 l-58 0 0
170 0 170 78 0 c56 0 87 -5 111 -18z"/>
<path d="M7860 2195 l0 -465 46 0 45 0 -3 385 c-2 212 0 378 4 368 4 -10 64
-183 134 -385 113 -324 130 -368 149 -368 18 0 35 44 149 373 70 204 131 380
134 390 4 10 6 -158 4 -373 l-3 -391 41 3 41 3 -1 460 0 460 -51 0 -52 0 -118
-335 c-66 -184 -124 -353 -130 -375 -14 -49 1 -86 -150 358 l-122 357 -59 0
-58 0 0 -465z"/>
<path d="M8850 2195 l0 -465 190 0 190 0 0 50 0 50 -150 0 -150 0 0 160 0 159
133 3 132 3 3 48 3 47 -135 0 -136 0 0 155 0 155 145 0 145 0 0 50 0 50 -185
0 -185 0 0 -465z"/>
<path d="M9420 2195 l0 -465 45 0 45 0 0 200 0 200 33 0 c104 0 126 -25 232
-252 l69 -148 51 0 51 0 -87 178 c-47 98 -101 195 -120 217 -21 23 -29 40 -22
42 34 12 81 53 107 96 23 38 30 62 34 122 6 100 -11 157 -62 211 -53 54 -90
64 -248 64 l-128 0 0 -465z m280 347 c51 -25 72 -72 68 -154 -3 -48 -9 -75
-24 -95 -40 -53 -68 -66 -154 -71 l-80 -5 0 172 0 171 78 0 c53 0 88 -5 112
-18z"/>
</g>
</svg>
