<?xml version="1.0" standalone="no"?>
<!DOCTYPE svg PUBLIC "-//W3C//DTD SVG 20010904//EN"
 "http://www.w3.org/TR/2001/REC-SVG-20010904/DTD/svg10.dtd">
<svg version="1.0" xmlns="http://www.w3.org/2000/svg"
 viewBox="390.944 359.975 1529.112 490.050"
 preserveAspectRatio="xMidYMid meet">

<g transform="translate(0.000000,1210.000000) scale(0.100000,-0.100000)"
fill="#000000" stroke="none">
<path d="M15328 7392 l-3 -864 -50 69 c-271 373 -733 541 -1215 443 -528 -108
-883 -500 -1006 -1110 -23 -117 -27 -166 -31 -375 -4 -185 -2 -271 11 -374 88
-715 461 -1179 1049 -1302 133 -28 372 -30 492 -5 96 21 211 59 280 94 163 81
351 244 445 384 25 37 47 68 50 68 3 0 4 -112 2 -250 l-4 -250 391 0 391 0 0
2165 c0 1725 -3 2165 -12 2165 -7 0 -187 1 -400 3 l-388 2 -2 -863z m-587
-775 c93 -32 171 -81 254 -162 154 -149 267 -377 322 -650 26 -130 25 -489 -1
-630 -83 -447 -315 -789 -595 -875 -170 -53 -359 0 -501 140 -199 197 -313
545 -325 990 -19 734 250 1209 685 1209 72 0 111 -5 161 -22z"/>
<path d="M11570 7845 l0 -385 405 0 405 0 0 384 0 384 -405 2 -405 1 0 -386z"/>
<path d="M23 8131 c-22 -6 -22 -7 -22 -213 l1 -208 649 0 649 0 0 -1895 0
-1895 430 0 430 0 0 1895 0 1895 645 0 645 0 0 210 0 210 -1682 1 c-926 0
-1692 2 -1703 3 -11 1 -30 0 -42 -3z"/>
<path d="M4455 7064 c-16 -2 -66 -9 -110 -15 -595 -77 -1102 -488 -1279 -1038
-65 -200 -86 -357 -81 -581 8 -304 88 -583 235 -824 79 -130 139 -203 263
-323 159 -153 345 -266 562 -343 283 -99 628 -117 930 -48 512 117 932 480
1120 968 79 202 109 380 109 630 0 217 -17 337 -75 512 -169 517 -601 901
-1149 1021 -63 14 -133 28 -155 31 -54 8 -333 15 -370 10z m315 -388 c194 -53
354 -211 444 -438 74 -187 106 -379 113 -680 8 -338 -23 -603 -98 -814 -121
-344 -311 -508 -604 -521 -195 -9 -327 39 -456 167 -219 218 -325 610 -313
1160 9 476 106 794 296 976 95 91 192 140 320 164 69 12 228 4 298 -14z"/>
<path d="M18057 7059 c-447 -52 -841 -288 -1073 -644 -179 -276 -260 -568
-263 -950 -3 -382 80 -683 267 -965 75 -113 252 -289 367 -366 546 -364 1332
-375 1828 -27 149 105 301 282 385 449 29 57 91 226 106 287 l6 27 -221 -2
-222 -3 -22 -65 c-103 -298 -285 -472 -562 -534 -290 -65 -556 1 -743 184
-193 189 -304 485 -326 873 l-7 117 1062 0 1061 0 0 133 c0 678 -324 1189
-886 1395 -223 82 -524 119 -757 91z m355 -389 c236 -73 383 -310 417 -671 6
-63 11 -133 11 -156 l0 -43 -631 0 -631 0 7 73 c44 480 220 756 519 813 91 17
223 11 308 -16z"/>
<path d="M21922 7047 c-173 -19 -345 -81 -483 -174 -128 -85 -225 -195 -346
-389 -9 -15 -12 36 -12 244 l-1 262 -385 0 -385 0 0 -1537 0 -1538 398 2 397
1 5 869 c6 835 7 872 27 983 58 309 153 515 305 662 80 78 198 142 293 159 86
16 208 6 279 -22 150 -59 260 -241 282 -469 4 -36 8 -72 10 -80 1 -8 3 -485 3
-1060 l1 -1045 383 2 c210 1 390 2 400 3 16 0 17 53 17 968 0 565 -4 1023 -10
1101 -43 564 -291 917 -722 1030 -130 34 -305 45 -456 28z"/>
<path d="M8347 7009 c-178 -15 -322 -78 -450 -198 -128 -121 -219 -254 -293
-431 l-23 -55 -1 333 0 332 -395 0 -395 0 0 -1535 0 -1535 410 0 409 0 4 963
c3 953 3 963 25 1044 33 127 77 209 152 283 155 156 357 187 840 128 l25 -3 2
320 c2 176 -1 326 -6 333 -5 8 -36 15 -82 18 -41 3 -87 6 -104 7 -16 2 -70 0
-118 -4z"/>
<path d="M10760 7009 c-47 -3 -110 -11 -140 -18 -84 -20 -228 -93 -297 -153
-123 -106 -249 -283 -311 -436 -16 -40 -31 -74 -33 -76 -2 -3 -4 145 -4 327
l0 332 -392 3 -393 2 0 -1535 0 -1535 410 0 410 0 0 918 c0 951 2 1011 42
1141 32 104 66 161 137 232 73 72 140 109 248 136 90 22 367 22 508 0 54 -8
103 -13 107 -11 11 7 10 636 -1 652 -11 17 -175 29 -291 21z"/>
<path d="M11580 5455 l0 -1535 400 0 400 0 0 1535 0 1535 -400 0 -400 0 0
-1535z"/>
</g>
</svg>
