<svg xmlns="http://www.w3.org/2000/svg" width="64" height="64" viewBox="0 0 64 64" fill="none" color="#9A7B52" aria-hidden="true" role="img">
  <g stroke="currentColor" stroke-width="2.4" stroke-linecap="round" stroke-linejoin="round">
    <path d="M15 23C19.2 20 23.8 20 28 23C32.2 26 36.8 26 41 23C43.5 21.2 46.2 20.5 49 21"/>
    <path d="M15 33C19.2 30 23.8 30 28 33C32.2 36 36.8 36 41 33C43.5 31.2 46.2 30.5 49 31"/>
    <path d="M15 43C19.2 40 23.8 40 28 43C32.2 46 36.8 46 41 43C43.5 41.2 46.2 40.5 49 41"/>
    <circle cx="18" cy="17" r="1.8" fill="currentColor" stroke="none"/>
    <circle cx="32" cy="17" r="1.8" fill="currentColor" stroke="none"/>
    <circle cx="46" cy="17" r="1.8" fill="currentColor" stroke="none"/>
  </g>
</svg>
